<mxfile host="app.diagrams.net" agent="Mozilla/5.0 (Windows NT 10.0; Win64; x64) AppleWebKit/537.36 (KHTML, like Gecko) Chrome/133.0.0.0 Safari/537.36" version="26.0.16">
  <diagram id="f106602c-feb2-e66a-4537-3a34d633f6aa" name="Page-1">
    <mxGraphModel dx="1434" dy="738" grid="1" gridSize="10" guides="1" tooltips="1" connect="1" arrows="1" fold="1" page="1" pageScale="1" pageWidth="1654" pageHeight="2336" background="none" math="0" shadow="0">
      <root>
        <mxCell id="0" />
        <mxCell id="1" parent="0" />
        <mxCell id="Lif8JBEafslfNm7ranTe-1" value="" style="fillColor=#F6F6F6;strokeColor=none;shadow=0;gradientColor=none;fontSize=14;align=left;spacing=10;fontColor=#717171;9E9E9E;verticalAlign=top;spacingTop=-4;fontStyle=0;spacingLeft=40;html=1;" parent="1" vertex="1">
          <mxGeometry x="310" y="230" width="810" height="580" as="geometry" />
        </mxCell>
        <mxCell id="Lif8JBEafslfNm7ranTe-4" value="Data Flow: CCIS API" style="fillColor=#4DA1F5;strokeColor=none;shadow=1;gradientColor=none;fontSize=14;align=left;spacingLeft=50;fontColor=#ffffff;html=1;" parent="1" vertex="1">
          <mxGeometry x="390" y="130" width="650" height="40" as="geometry" />
        </mxCell>
        <mxCell id="uueP2DIrT8dm-PXU4ACH-8" value="FAE" style="strokeColor=#d79b00;shadow=1;strokeWidth=1;rounded=1;absoluteArcSize=1;arcSize=2;fillColor=#ffe6cc;" parent="1" vertex="1">
          <mxGeometry x="1150" y="575" width="125" height="60" as="geometry" />
        </mxCell>
        <mxCell id="uueP2DIrT8dm-PXU4ACH-22" value="CCIS Database" style="strokeWidth=2;html=1;shape=mxgraph.flowchart.database;whiteSpace=wrap;fillColor=#fff2cc;strokeColor=#d6b656;" parent="1" vertex="1">
          <mxGeometry x="500" y="630" width="100" height="86" as="geometry" />
        </mxCell>
        <mxCell id="q8ui2nwzY_pe0tobpwhm-1" style="edgeStyle=orthogonalEdgeStyle;rounded=0;orthogonalLoop=1;jettySize=auto;html=1;entryX=0.5;entryY=0;entryDx=0;entryDy=0;entryPerimeter=0;" edge="1" parent="1" source="ZAgyCPwNIXEEH-julRxE-9" target="uueP2DIrT8dm-PXU4ACH-22">
          <mxGeometry relative="1" as="geometry" />
        </mxCell>
        <mxCell id="ZAgyCPwNIXEEH-julRxE-9" value="Create Card Day Data" style="shape=process;whiteSpace=wrap;html=1;backgroundOutline=1;fillColor=#dae8fc;strokeColor=#6c8ebf;" parent="1" vertex="1">
          <mxGeometry x="640" y="440" width="120" height="60" as="geometry" />
        </mxCell>
        <mxCell id="q8ui2nwzY_pe0tobpwhm-2" value="" style="edgeStyle=orthogonalEdgeStyle;rounded=0;orthogonalLoop=1;jettySize=auto;html=1;" edge="1" parent="1" source="ZAgyCPwNIXEEH-julRxE-16" target="ZAgyCPwNIXEEH-julRxE-9">
          <mxGeometry relative="1" as="geometry" />
        </mxCell>
        <mxCell id="q8ui2nwzY_pe0tobpwhm-3" value="" style="edgeStyle=orthogonalEdgeStyle;rounded=0;orthogonalLoop=1;jettySize=auto;html=1;" edge="1" parent="1" source="ZAgyCPwNIXEEH-julRxE-16" target="npmdF4MWlbW2EP3G8hba-2">
          <mxGeometry relative="1" as="geometry" />
        </mxCell>
        <mxCell id="q8ui2nwzY_pe0tobpwhm-4" style="edgeStyle=orthogonalEdgeStyle;rounded=0;orthogonalLoop=1;jettySize=auto;html=1;strokeColor=#4284F3;strokeWidth=2;align=center;verticalAlign=middle;fontFamily=Helvetica;fontSize=11;fontColor=default;labelBackgroundColor=default;endArrow=classic;" edge="1" parent="1" source="ZAgyCPwNIXEEH-julRxE-16" target="uueP2DIrT8dm-PXU4ACH-8">
          <mxGeometry relative="1" as="geometry" />
        </mxCell>
        <mxCell id="ZAgyCPwNIXEEH-julRxE-16" value="&lt;span style=&quot;text-wrap: nowrap;&quot;&gt;Create Card Day Data&lt;/span&gt;" style="whiteSpace=wrap;html=1;shadow=1;strokeWidth=1;rounded=1;arcSize=2;" parent="1" vertex="1">
          <mxGeometry x="857" y="440" width="180" height="60" as="geometry" />
        </mxCell>
        <mxCell id="npmdF4MWlbW2EP3G8hba-1" value="Master Data" style="strokeColor=#d79b00;shadow=1;strokeWidth=1;rounded=1;absoluteArcSize=1;arcSize=2;fillColor=#ffe6cc;" parent="1" vertex="1">
          <mxGeometry x="1220" y="320" width="125" height="60" as="geometry" />
        </mxCell>
        <mxCell id="npmdF4MWlbW2EP3G8hba-3" style="edgeStyle=orthogonalEdgeStyle;rounded=0;orthogonalLoop=1;jettySize=auto;html=1;entryX=0;entryY=0.5;entryDx=0;entryDy=0;strokeColor=#4284F3;strokeWidth=2;align=center;verticalAlign=middle;fontFamily=Helvetica;fontSize=11;fontColor=default;labelBackgroundColor=default;endArrow=classic;" parent="1" source="npmdF4MWlbW2EP3G8hba-2" target="npmdF4MWlbW2EP3G8hba-1" edge="1">
          <mxGeometry relative="1" as="geometry" />
        </mxCell>
        <mxCell id="npmdF4MWlbW2EP3G8hba-2" value="Get fare mappings&amp;nbsp;" style="shape=process;whiteSpace=wrap;html=1;backgroundOutline=1;fillColor=#dae8fc;strokeColor=#6c8ebf;" parent="1" vertex="1">
          <mxGeometry x="887" y="320" width="120" height="60" as="geometry" />
        </mxCell>
      </root>
    </mxGraphModel>
  </diagram>
</mxfile>
